<svg xmlns="http://www.w3.org/2000/svg" viewBox="0 0 32 32" width="512" height="512">
  <rect width="32" height="32" rx="7" fill="#0f1923"/>
  <g fill="none" stroke="#f59e0b" stroke-width="2.2" stroke-linecap="round" stroke-linejoin="round">
    <circle cx="16" cy="6.6" r="2.3"/>
    <line x1="16" y1="8.9" x2="16" y2="23.2"/>
    <line x1="11.3" y1="12.4" x2="20.7" y2="12.4"/>
    <path d="M8.4 16.2 a7.6 7.6 0 0 0 15.2 0"/>
    <line x1="8.4" y1="16.2" x2="6.7" y2="18.1"/>
    <line x1="8.4" y1="16.2" x2="10.7" y2="17.5"/>
    <line x1="23.6" y1="16.2" x2="25.3" y2="18.1"/>
    <line x1="23.6" y1="16.2" x2="21.3" y2="17.5"/>
  </g>
  <g fill="none" stroke="#38bdf8" stroke-width="1.5" stroke-linecap="round" opacity="0.9">
    <path d="M6 27 q2 -2 4 0 q2 2 4 0 q2 -2 4 0 q2 2 4 0 q2 -2 4 0"/>
  </g>
</svg>
